<svg width="277" height="18" viewBox="0 0 277 18" fill="none" xmlns="http://www.w3.org/2000/svg">
<path d="M0 8.51532C0 13.2182 3.81244 17.0306 8.51532 17.0306V8.51532C8.51532 13.2182 12.3278 17.0306 17.0306 17.0306V8.51532C17.0306 13.2182 20.8431 17.0306 25.546 17.0306C30.2488 17.0306 34.0613 13.2182 34.0613 8.51532C34.0613 3.81245 30.2488 0 25.546 0C20.8431 0 17.0306 3.81245 17.0306 8.51532V0C12.3278 0 8.51532 3.81245 8.51532 8.51532V0C3.81244 0 0 3.81245 0 8.51532Z" fill="#9DE03F"/>
<path d="M275.351 7.41087C274.655 6.99044 273.912 6.6817 273.124 6.48462C272.336 6.27441 271.39 6.12989 270.286 6.05106C270.194 6.03792 270.102 6.03136 270.01 6.03136C269.931 6.01822 269.853 6.01165 269.774 6.01165C269.498 6.01165 269.36 6.12332 269.36 6.34667C269.36 6.47805 269.432 6.57002 269.577 6.62257C269.734 6.66199 269.944 6.69483 270.207 6.72111C270.72 6.7868 271.258 6.86563 271.823 6.9576C272.388 7.03643 272.94 7.16124 273.479 7.33204C274.017 7.50283 274.503 7.75246 274.937 8.08091C275.384 8.40937 275.732 8.84293 275.982 9.3816C276.244 9.92026 276.376 10.5969 276.376 11.4114C276.376 12.318 276.165 13.08 275.745 13.6975C275.325 14.3019 274.753 14.788 274.03 15.1558C273.321 15.5106 272.506 15.7668 271.587 15.9244C270.68 16.0821 269.741 16.1609 268.769 16.1609C267.639 16.174 266.515 16.1084 265.399 15.9638C264.295 15.8325 263.316 15.6617 262.462 15.4514L263.014 8.51448C263.316 8.73783 263.678 8.98088 264.098 9.24365C264.518 9.49327 265.09 9.72319 265.813 9.9334C266.535 10.1436 267.488 10.3078 268.67 10.4261C268.736 10.4392 268.795 10.4458 268.847 10.4458C268.913 10.4458 268.972 10.4458 269.025 10.4458C269.169 10.4458 269.274 10.4261 269.34 10.3867C269.419 10.3473 269.458 10.2619 269.458 10.1305C269.458 9.98595 269.393 9.89399 269.261 9.85457C269.143 9.81516 268.953 9.77574 268.69 9.73633C267.98 9.6575 267.271 9.54583 266.561 9.4013C265.865 9.25678 265.228 9.03343 264.65 8.73126C264.072 8.42908 263.605 8.00866 263.251 7.46999C262.909 6.93132 262.738 6.22843 262.738 5.36131C262.738 4.12632 263.027 3.14752 263.605 2.42492C264.197 1.68918 264.991 1.16365 265.99 0.848334C266.988 0.519879 268.105 0.355652 269.34 0.355652C270.378 0.355652 271.462 0.454188 272.592 0.651261C273.722 0.835196 274.838 1.09139 275.942 1.41985L275.351 7.41087Z" fill="#9DE03F"/>
<path d="M254.246 15.8456H248.038V0.670959H257.064C257.905 0.670959 258.673 0.822049 259.37 1.12423C260.079 1.42641 260.644 1.91252 261.064 2.58257C261.485 3.25262 261.695 4.14601 261.695 5.26276C261.695 5.57808 261.669 5.91967 261.616 6.28754C261.577 6.65541 261.478 7.02328 261.321 7.39115C261.163 7.74588 260.92 8.06777 260.592 8.35681C260.276 8.63271 259.843 8.84949 259.291 9.00715L262.405 15.8456H255.487L254.423 11.7859H254.246V15.8456ZM255.606 5.51896H253.714V6.58315H255.665C255.77 6.58315 255.881 6.55031 256 6.48461C256.131 6.41892 256.197 6.28097 256.197 6.07076C256.197 5.84741 256.125 5.70289 255.98 5.6372C255.835 5.55837 255.711 5.51896 255.606 5.51896Z" fill="#9DE03F"/>
<path d="M241.452 9.89398V10.702H247.483V15.8456H235.244V0.670959H247.128V5.1051H241.452V5.9131H246.596V9.89398H241.452Z" fill="#9DE03F"/>
<path d="M234.654 0.670959V6.52403H230.851V15.8456H224.288V6.52403H220.465V0.670959H234.654Z" fill="#9DE03F"/>
<path d="M211.584 15.8456H205.731V0.670959H212.648L213.968 6.18901H214.146L214.067 0.670959H219.92V15.8456H213.535L211.663 8.75095H211.485L211.584 15.8456Z" fill="#9DE03F"/>
<path d="M191.242 0.670959H197.627V10.564C197.627 10.6034 197.647 10.702 197.686 10.8596C197.739 11.0173 197.897 11.0961 198.159 11.0961C198.422 11.0961 198.573 11.0173 198.613 10.8596C198.665 10.702 198.691 10.6034 198.691 10.564V0.670959H205.077V10.8399C205.077 11.5625 204.958 12.2457 204.722 12.8895C204.485 13.5201 204.098 14.0851 203.559 14.5843C203.02 15.0704 202.291 15.458 201.372 15.747C200.465 16.023 199.335 16.1609 197.982 16.1609C196.786 16.1609 195.762 16.0164 194.908 15.7273C194.054 15.4383 193.357 15.0442 192.819 14.5449C192.28 14.0457 191.879 13.4807 191.617 12.8501C191.367 12.2194 191.242 11.5625 191.242 10.8793V0.670959Z" fill="#9DE03F"/>
<path d="M190.505 11.7465C190.294 13.126 189.565 14.2099 188.317 14.9982C187.069 15.7733 185.433 16.1609 183.41 16.1609C181.387 16.1609 179.751 15.7733 178.503 14.9982C177.268 14.223 176.539 13.1523 176.315 11.7859C176.263 11.418 176.217 10.9253 176.177 10.3078C176.151 9.67721 176.138 9.00059 176.138 8.27799C176.138 7.58166 176.151 6.93789 176.177 6.34667C176.217 5.74232 176.263 5.26934 176.315 4.92775C176.539 3.48254 177.275 2.35923 178.523 1.5578C179.771 0.756367 181.4 0.355652 183.41 0.355652C185.433 0.355652 187.069 0.756367 188.317 1.5578C189.565 2.34609 190.294 3.44313 190.505 4.84892C190.557 5.19051 190.597 5.66349 190.623 6.26784C190.662 6.85906 190.682 7.5094 190.682 8.21887C190.682 8.96774 190.662 9.65093 190.623 10.2684C190.597 10.8859 190.557 11.3786 190.505 11.7465ZM183.942 10.8399V5.67662C183.942 5.32189 183.765 5.14453 183.41 5.14453C183.055 5.14453 182.878 5.32189 182.878 5.67662V10.8399C182.878 11.1947 183.055 11.372 183.41 11.372C183.765 11.372 183.942 11.1947 183.942 10.8399Z" fill="#9DE03F"/>
<path d="M169.172 8.47506L175.617 8.8495V11.5691C175.617 12.988 174.973 14.0982 173.685 14.8996C172.411 15.7011 170.631 16.1018 168.345 16.1018C167.018 16.1018 165.842 15.9244 164.817 15.5697C163.792 15.215 162.971 14.7026 162.354 14.0325C161.736 13.3493 161.368 12.5282 161.25 11.5691C161.211 11.2144 161.178 10.748 161.151 10.1699C161.125 9.57867 161.112 8.9349 161.112 8.23857C161.112 7.54225 161.125 6.90505 161.151 6.32696C161.178 5.74888 161.211 5.28248 161.25 4.92775C161.368 3.95552 161.736 3.13438 162.354 2.46433C162.971 1.78115 163.792 1.26219 164.817 0.907456C165.842 0.539587 167.018 0.355652 168.345 0.355652C169.842 0.355652 171.13 0.539587 172.207 0.907456C173.298 1.27533 174.139 1.80085 174.73 2.48404C175.321 3.15409 175.617 3.96866 175.617 4.92775V6.72111L169.172 7.41087V5.81458C169.172 5.45984 168.995 5.28248 168.64 5.28248C168.286 5.28248 168.108 5.45984 168.108 5.81458V10.6034C168.108 10.9582 168.286 11.1355 168.64 11.1355C168.995 11.1355 169.172 10.9582 169.172 10.6034V8.47506Z" fill="#9DE03F"/>
<path d="M152.192 15.8456H146.339V0.670959H153.256L154.576 6.18901H154.754L154.675 0.670959H160.528V15.8456H154.143L152.27 8.75095H152.093L152.192 15.8456Z" fill="#9DE03F"/>
<path d="M139.772 9.89398V10.702H145.803V15.8456H133.565V0.670959H145.448V5.1051H139.772V5.9131H144.916V9.89398H139.772Z" fill="#9DE03F"/>
<path d="M122.037 9.89398V10.702H128.068V15.8456H115.83V0.670959H127.713V5.1051H122.037V5.9131H127.181V9.89398H122.037Z" fill="#9DE03F"/>
<path d="M107.396 15.8456H101.188V0.670959H110.214C111.055 0.670959 111.824 0.822049 112.52 1.12423C113.23 1.42641 113.795 1.91252 114.215 2.58257C114.635 3.25262 114.846 4.14601 114.846 5.26276C114.846 5.57808 114.819 5.91967 114.767 6.28754C114.727 6.65541 114.629 7.02328 114.471 7.39115C114.314 7.74588 114.07 8.06777 113.742 8.35681C113.427 8.63271 112.993 8.84949 112.441 9.00715L115.555 15.8456H108.638L107.574 11.7859H107.396V15.8456ZM108.756 5.51896H106.864V6.58315H108.815C108.92 6.58315 109.032 6.55031 109.15 6.48461C109.282 6.41892 109.347 6.28097 109.347 6.07076C109.347 5.84741 109.275 5.70289 109.131 5.6372C108.986 5.55837 108.861 5.51896 108.756 5.51896Z" fill="#9DE03F"/>
<path d="M100.372 11.7465C100.162 13.126 99.4329 14.2099 98.1847 14.9982C96.9366 15.7733 95.3009 16.1609 93.2776 16.1609C91.2543 16.1609 89.6186 15.7733 88.3705 14.9982C87.1355 14.223 86.4063 13.1523 86.183 11.7859C86.1304 11.418 86.0844 10.9253 86.045 10.3078C86.0188 9.67721 86.0056 9.00059 86.0056 8.27799C86.0056 7.58166 86.0188 6.93789 86.045 6.34667C86.0844 5.74232 86.1304 5.26934 86.183 4.92775C86.4063 3.48254 87.1421 2.35923 88.3902 1.5578C89.6383 0.756367 91.2675 0.355652 93.2776 0.355652C95.3009 0.355652 96.9366 0.756367 98.1847 1.5578C99.4329 2.34609 100.162 3.44313 100.372 4.84892C100.425 5.19051 100.464 5.66349 100.49 6.26784C100.53 6.85906 100.55 7.5094 100.55 8.21887C100.55 8.96774 100.53 9.65093 100.49 10.2684C100.464 10.8859 100.425 11.3786 100.372 11.7465ZM93.8097 10.8399V5.67662C93.8097 5.32189 93.6323 5.14453 93.2776 5.14453C92.9229 5.14453 92.7455 5.32189 92.7455 5.67662V10.8399C92.7455 11.1947 92.9229 11.372 93.2776 11.372C93.6323 11.372 93.8097 11.1947 93.8097 10.8399Z" fill="#9DE03F"/>
<path d="M79.5188 0.670959V9.81515H85.5493V15.8456H73.311V0.670959H79.5188Z" fill="#9DE03F"/>
<path d="M65.128 15.8456H58.9202V0.670959H68.1235C68.9643 0.670959 69.7329 0.835187 70.4292 1.16364C71.1387 1.47896 71.7036 2.03733 72.1241 2.83876C72.5445 3.62706 72.7547 4.7241 72.7547 6.12988C72.7547 7.5094 72.5379 8.60644 72.1044 9.421C71.6708 10.2224 71.0993 10.8005 70.3898 11.1552C69.6935 11.4968 68.938 11.6676 68.1235 11.6676H65.128V15.8456ZM66.6651 5.65691H64.7732V6.7211H66.7243C66.8294 6.7211 66.941 6.68826 67.0593 6.62257C67.1907 6.55688 67.2564 6.41892 67.2564 6.20871C67.2564 5.98536 67.1841 5.84084 67.0396 5.77515C66.8951 5.69632 66.7702 5.65691 66.6651 5.65691Z" fill="#9DE03F"/>
<path d="M50.9026 5.20364L51.6909 0.670959H58.4308L55.9477 7.58822L58.4308 15.8456H51.8683L50.9026 9.9531H50.7253L49.7399 15.8456H43L45.6605 7.58822L43.1774 0.670959H49.7399L50.7253 5.20364H50.9026Z" fill="#9DE03F"/>
</svg>
